<?xml version="1.0" ?><svg id="Guidelines" viewBox="0 0 512 512" xmlns="http://www.w3.org/2000/svg"><defs><style>.cls-1{fill:#231f20;}</style></defs><path class="cls-1" d="M241.75,250.8a73.34,73.34,0,1,1,73.33-73.34A73.42,73.42,0,0,1,241.75,250.8Zm0-125.53a52.2,52.2,0,1,0,52.19,52.19A52.25,52.25,0,0,0,241.75,125.27Z"/><path class="cls-1" d="M255.45,407.87H124.67L114.1,397.3A127.79,127.79,0,0,1,241.75,269.66a126.36,126.36,0,0,1,78.4,26.91,130.26,130.26,0,0,1,10.06,8.71l7.62,7.33-14.66,15.24-7.62-7.33a107.49,107.49,0,0,0-8.39-7.28,105.46,105.46,0,0,0-65.41-22.44,106.67,106.67,0,0,0-106,95.93H255.45Z"/><polygon class="cls-1" points="313.92 407.56 297.78 407.41 250.62 350.53 266.9 337.04 306.07 384.29 381.88 296.3 397.9 310.1 313.92 407.56"/></svg>