<?xml version="1.0" ?><svg viewBox="0 0 64 64" xmlns="http://www.w3.org/2000/svg"><title/><g data-name="52-woman" id="_52-woman"><path d="M26.34,31.66a7.838,7.838,0,0,0,1.69,1.28L28,33H24l-3-3-3,3-3-3,3-3-3-3,3-3-3-3,3-3a14,14,0,0,1,28,0l3,3-3,3,3,3-3,3,3,3-3,3-3-3-3,3H36l-.03-.06A7.974,7.974,0,0,0,40,26l1-11-3-3-3,3-3-3-3,3-3-3-3,3,1,11A8.014,8.014,0,0,0,26.34,31.66Z" style="fill:#fad17f"/><rect height="2.121" style="fill:#fcf2b6" transform="translate(-16.38 20.454) rotate(-45)" width="2.121" x="15.439" y="28.939"/><rect height="2.121" style="fill:#fcf2b6" transform="translate(-12.138 18.697) rotate(-45)" width="2.121" x="15.439" y="22.939"/><path d="M41,18l-.25-.25L40,26a7.974,7.974,0,0,1-4.03,6.94L36,33h2.924A7.955,7.955,0,0,0,40,29Z" style="fill:#cc9f56"/><path d="M18,18a14,14,0,0,1,28,0l1.5,1.5L49,18l-3-3a14,14,0,0,0-28,0l-3,3,1.5,1.5Z" style="fill:#fcf2b6"/><rect height="2.121" style="fill:#fcf2b6" transform="translate(-3.058 40.617) rotate(-45)" width="2.121" x="46.439" y="22.939"/><rect height="2.121" style="fill:#fcf2b6" transform="translate(-7.301 42.374) rotate(-45)" width="2.121" x="46.439" y="28.939"/><path d="M24,26l-.75-8.25L23,18l1,11a7.965,7.965,0,0,0,1.079,4H28l.03-.06a7.838,7.838,0,0,1-1.69-1.28A8.014,8.014,0,0,1,24,26Z" style="fill:#cc9f56"/><circle cx="32" cy="45" r="2" style="fill:#ff7045"/><path d="M47,63H17c0-7,2-10,2-10V51l6-4s7,2,7,7c0-5,7-7,7-7l6,4v2S47,56,47,63Z" style="fill:#ff7045"/><path d="M19,56V54l6-4s7,2,7,7c0-5,7-7,7-7l6,4v2s1.416,2.141,1.863,7H47c0-7-2-10-2-10V51l-6-4s-7,2-7,7c0-5-7-7-7-7l-6,4v2s-2,3-2,10h.137C17.584,58.141,19,56,19,56Z" style="fill:#f92814"/><path d="M19,51v2s-2,3-2,10H13V44.25a3.994,3.994,0,0,1,3.18-3.92l5.87-1.19L25,47Z" style="fill:#ffb680"/><path d="M45,51l-6-4,2.95-7.86,5.87,1.19A3.994,3.994,0,0,1,51,44.25V63H47c0-7-2-10-2-10Z" style="fill:#ffb680"/><path d="M32,43a2,2,0,1,0,2,2A2.006,2.006,0,0,0,32,43Zm0-3,4.33-2.6a1.937,1.937,0,0,0,1.34.88l4.28.86L39,47s-7,2-7,7c0-5-7-7-7-7l-2.95-7.86,4.28-.86a1.937,1.937,0,0,0,1.34-.88Z" style="fill:#ffb680"/><path d="M36.33,37.4,32,40l-4.33-2.6A1.946,1.946,0,0,0,28,36.31V33l.03-.06a7.964,7.964,0,0,0,7.94,0L36,33v3.31A1.946,1.946,0,0,0,36.33,37.4Z" style="fill:#ffb680"/><path d="M16.18,43.33l5.87-1.19L24.1,47.6,25,47l-2.95-7.86-5.87,1.19A3.994,3.994,0,0,0,13,44.25v3A3.994,3.994,0,0,1,16.18,43.33Z" style="fill:#eb975d"/><path d="M47.82,40.33l-5.87-1.19L39,47l.9.6,2.049-5.46,5.87,1.19A3.994,3.994,0,0,1,51,47.25v-3A3.994,3.994,0,0,0,47.82,40.33Z" style="fill:#eb975d"/><path d="M26.33,41.28a1.937,1.937,0,0,0,1.34-.88L32,43l4.33-2.6a1.937,1.937,0,0,0,1.34.88l3.233.65,1.047-2.79-4.28-.86a1.937,1.937,0,0,1-1.34-.88L32,40l-4.33-2.6a1.937,1.937,0,0,1-1.34.88l-4.28.86L23.1,41.93Z" style="fill:#eb975d"/><path d="M32,50a1.991,1.991,0,0,0,1.307-3.5,1.958,1.958,0,0,1-2.614,0A1.991,1.991,0,0,0,32,50Z" style="fill:#eb975d"/><path d="M32,37a7.954,7.954,0,0,0,3.97-1.06L36,36V33l-.03-.06a7.964,7.964,0,0,1-7.94,0L28,33v3l.03-.06A7.954,7.954,0,0,0,32,37Z" style="fill:#eb975d"/><path d="M36,37.6l.33-.2A1.946,1.946,0,0,1,36,36.31Z" style="fill:#eb975d"/><path d="M28,36.31a1.946,1.946,0,0,1-.33,1.09l.33.2Z" style="fill:#eb975d"/><path d="M41,15,40,26a7.992,7.992,0,0,1-11.97,6.94,7.838,7.838,0,0,1-1.69-1.28A8.014,8.014,0,0,1,24,26L23,15l3-3,3,3,3-3,3,3,3-3Z" style="fill:#ffdaaa"/><polygon points="26 16 29 19 32 16 35 19 38 16 40.667 18.667 41 15 38 12 35 15 32 12 29 15 26 12 23 15 23.333 18.667 26 16" style="fill:#ffb680"/><path d="M28.03,32.94a7.838,7.838,0,0,1-1.69-1.28A8.014,8.014,0,0,1,24,26L23,15l3-3,3,3,3-3,3,3,3-3,3,3L40,26a7.992,7.992,0,0,1-11.97,6.94Z" style="fill:none;stroke:#000;stroke-linejoin:round;stroke-width:2px"/><path d="M28,33v3.31a2.015,2.015,0,0,1-1.67,1.97l-4.28.86-5.87,1.19A3.994,3.994,0,0,0,13,44.25V63H51V44.25a3.994,3.994,0,0,0-3.18-3.92l-5.87-1.19-4.28-.86A2.015,2.015,0,0,1,36,36.31V33" style="fill:none;stroke:#000;stroke-linejoin:round;stroke-width:2px"/><path d="M36,33h4l3-3,3,3,3-3-3-3,3-3-3-3,3-3-3-3a14,14,0,0,0-28,0l-3,3,3,3-3,3,3,3-3,3,3,3,3-3,3,3h4" style="fill:none;stroke:#000;stroke-linejoin:round;stroke-width:2px"/><polyline points="27 37 27.67 37.4 32 40 36.33 37.4 37 37" style="fill:none;stroke:#000;stroke-linejoin:round;stroke-width:2px"/><path d="M19,46v7s-2,3-2,10" style="fill:none;stroke:#000;stroke-linejoin:round;stroke-width:2px"/><path d="M45,46v7s2,3,2,10" style="fill:none;stroke:#000;stroke-linejoin:round;stroke-width:2px"/><path d="M45,51l-6-4s-7,2-7,7c0-5-7-7-7-7l-6,4" style="fill:none;stroke:#000;stroke-linejoin:round;stroke-width:2px"/><polyline points="39 47 41.95 39.14 42 39" style="fill:none;stroke:#000;stroke-linejoin:round;stroke-width:2px"/><polyline points="25 47 22.05 39.14 22 39" style="fill:none;stroke:#000;stroke-linejoin:round;stroke-width:2px"/><circle cx="32" cy="45" r="2" style="fill:none;stroke:#000;stroke-linejoin:round;stroke-width:2px"/><line style="fill:none;stroke:#000;stroke-linejoin:round;stroke-width:2px" x1="32" x2="32" y1="43" y2="40"/></g></svg>