<?xml version="1.0" ?><svg xmlns="http://www.w3.org/2000/svg" xmlns:xlink="http://www.w3.org/1999/xlink" version="1.1" id="Layer_1" width="128px" height="128px" viewBox="0 0 128 128" enable-background="new 0 0 128 128" xml:space="preserve"><g><path d="M65.72,65.394c-9.076,0.523-12.087,4.914-11.877,8.849c0.283,5.307,6.018,7.785,11.538,7.474   c5.405-0.297,11.539-2.417,12.586-15.479c-2.804-0.613-5.889-0.934-9.185-0.934C67.78,65.305,66.76,65.333,65.72,65.394z"/><path d="M104.709,0.962H23.291c-12.374,0-22.405,10.031-22.405,22.405v81.266c0,12.374,10.031,22.405,22.405,22.405h81.418   c12.374,0,22.405-10.031,22.405-22.405V23.367C127.114,10.993,117.083,0.962,104.709,0.962z M103.066,46.5   c-2.224,0.593-4.501-0.631-5.303-2.789c-1.418-3.813-3.273-7.16-5.55-9.962c-6.157-7.576-15.437-11.462-27.585-11.552   c-12.061,0.089-21.182,3.957-27.112,11.496c-5.553,7.059-8.423,17.256-8.53,30.307c0.107,13.051,2.977,23.247,8.529,30.304   c5.93,7.539,15.052,11.407,27.112,11.496c10.872-0.08,18.066-2.667,24.051-8.646c6.831-6.825,6.704-15.197,4.519-20.291   c-1.285-2.996-3.611-5.49-6.75-7.384c-0.764,5.698-2.496,10.22-5.234,13.71c-3.604,4.595-8.772,7.108-15.359,7.469   c-4.987,0.272-9.787-0.931-13.513-3.391c-4.407-2.91-6.987-7.363-7.263-12.541c-0.544-10.206,7.554-17.552,20.148-18.278   c4.47-0.256,8.653-0.055,12.52,0.603c-0.513-3.14-1.55-5.629-3.101-7.429c-2.13-2.473-5.421-3.741-9.783-3.769   c-0.04,0-0.081,0-0.121,0c-2.749,0-6.269,0.604-9.122,3.086c-1.512,1.316-3.733,1.416-5.386,0.282   c-2.409-1.652-2.572-5.114-0.378-7.043c3.912-3.439,9.034-5.282,14.882-5.282c0.06,0,0.12,0,0.18,0   c13.247,0.085,21.137,8.351,21.92,22.789c0.45,0.193,0.895,0.395,1.332,0.605c6.181,2.966,10.701,7.455,13.073,12.983   c3.305,7.708,3.607,20.264-6.42,30.281c-7.664,7.657-16.967,11.112-30.164,11.203h-0.059c-14.845-0.102-26.26-5.098-33.929-14.847   c-6.824-8.675-10.344-20.746-10.462-35.877V64v-0.036c0.118-15.131,3.638-27.202,10.462-35.877   c7.669-9.749,19.084-14.744,33.929-14.847h0.059c14.875,0.103,26.419,5.079,34.313,14.791c2.981,3.667,5.357,7.912,7.123,12.708   C106.987,43.165,105.563,45.834,103.066,46.5z"/></g></svg>